<svg xmlns="http://www.w3.org/2000/svg" width="260" height="37" viewBox="0 0 260 37">
  <rect width="260" height="37" fill="none"/>
  <circle cx="8" cy="18.5" r="8" fill="#6771b8"/>
  <circle cx="252" cy="18.5" r="8" fill="#6771b8"/>
  <path d="M5 18.5h6M8 15.5v6M249 18.5h6M252 15.5v6" stroke="#ffffff" stroke-width="1.5" stroke-linecap="round"/>
  <rect x="29" y="1" width="202" height="35" rx="17" fill="#050505" stroke="#9aa7df" stroke-width="1.4"/>
  <g fill="#ffffff">
    <path d="M52 25c7-11 20-11 27 0H52z"/>
    <path d="M179 25c7-11 20-11 27 0h-27z"/>
    <circle cx="89" cy="17" r="4"/>
    <circle cx="171" cy="17" r="4"/>
    <circle cx="122" cy="18" r="12"/>
    <circle cx="138" cy="18" r="12"/>
    <path d="M74 24c6-9 16-8 20 0M166 24c-6-9-16-8-20 0" stroke="#ffffff" stroke-width="4" fill="none" stroke-linecap="round"/>
    <path d="M98 25c5-10 17-16 32-16s27 6 32 16H98z"/>
  </g>
</svg>
